<mxfile host="app.diagrams.net" modified="2020-10-08T20:42:41.853Z" agent="5.0 (Macintosh)" etag="BdRGL1I_ZLbA2jdCnBqA" version="13.7.9" type="github">
  <diagram id="T0rFNiq_OgX8usC7l5FM" name="Page-1">
    <mxGraphModel dx="914" dy="827" grid="1" gridSize="10" guides="1" tooltips="1" connect="1" arrows="1" fold="1" page="1" pageScale="1" pageWidth="827" pageHeight="1169" math="0" shadow="0">
      <root>
        <mxCell id="0" />
        <mxCell id="1" parent="0" />
      </root>
    </mxGraphModel>
  </diagram>
</mxfile>
